<svg xmlns="http://www.w3.org/2000/svg" width="96" height="96" viewBox="-46.5 -153 400 400" shape-rendering="geometricPrecision"><style>@media (prefers-color-scheme:dark){path{fill:#f0f0f0;stroke:#234;stroke-width:3px;}}@media (prefers-color-scheme:light){path{fill:#234;stroke:#fff;stroke-width:3px;}}</style><path d="M27 94H0V0h27Zm93-35q0 6.8-.3 11.5a52.7 52.7 0 0 1-1 8.2 22 22 0 0 1-2 5.8 21 21 0 0 1-3 4.2 16.5 16.5 0 0 1-6.4 4A33.7 33.7 0 0 1 97 94H64a39.9 39.9 0 0 1-11.3-1.3 17.7 17.7 0 0 1-7.4-4.5 22.5 22.5 0 0 1-4-5.4 30.7 30.7 0 0 1-2.6-7.8 77.2 77.2 0 0 1-1.5-11.4q-.4-6.7-.4-16.6t.4-16.6A77.4 77.4 0 0 1 38.8 19a30.7 30.7 0 0 1 2.6-7.8 22.4 22.4 0 0 1 4-5.4 16.4 16.4 0 0 1 7.3-4.5A41 41 0 0 1 64.1 0H96a37.5 37.5 0 0 1 11.2 1.3 17.6 17.6 0 0 1 6.9 4.3 16.4 16.4 0 0 1 3.2 4.5 28.5 28.5 0 0 1 2 6 51.3 51.3 0 0 1 1 8.4q.3 4.9.3 11.5H95.4l-.6-9.4a5.3 5.3 0 0 0-1-2.9 5 5 0 0 0-2.2-1.3 17.8 17.8 0 0 0-4.3-.4H73.1a28 28 0 0 0-4.7.4 3.9 3.9 0 0 0-2.3 1.3 5 5 0 0 0-1 1.6 14.8 14.8 0 0 0-.7 3.8l-.3 7.3-.1 12.4V60a45.8 45.8 0 0 0 .4 6.7 13.4 13.4 0 0 0 .7 3.4 4.6 4.6 0 0 0 .8 1.5 3.5 3.5 0 0 0 2 1.2 25.6 25.6 0 0 0 4.4.2h13a16.2 16.2 0 0 0 3.8-.3 4.4 4.4 0 0 0 2-1.1q.8-.7 1.1-3.2t.4-9.4Zm8 35V0h29v13l7.7-6.9a34.7 34.7 0 0 1 5.8-3.9 17.8 17.8 0 0 1 5.2-1.7 36.9 36.9 0 0 1 6-.5h11q11.5 0 16.8 5.3a16.7 16.7 0 0 1 4.2 7.7q1.3 4.7 1.3 15v66h-28V32.4q0-5.4-2-7.4a6.4 6.4 0 0 0-2.5-1.5 16.4 16.4 0 0 0-4.8-.5h-6.4a23.4 23.4 0 0 0-6.5.9 82.5 82.5 0 0 0-7.8 2.8V94Zm178.7-29q0 10.8-1.9 16.4a22.5 22.5 0 0 1-4.8 8.5 12.4 12.4 0 0 1-5.4 3.2 30.7 30.7 0 0 1-8.3 1h-40.6a42.6 42.6 0 0 1-10.3-1.1 12.3 12.3 0 0 1-6.2-3.4 14 14 0 0 1-2.4-3.2 19.3 19.3 0 0 1-1.7-4.8 46.3 46.3 0 0 1-1-7l-.5-10.6H248a62.6 62.6 0 0 0 .4 6.5 5 5 0 0 0 1 2.4 2 2 0 0 0 1.3.9 15.7 15.7 0 0 0 3.5.2H275a17.1 17.1 0 0 0 3.5-.2 3.4 3.4 0 0 0 1.6-.8 3.7 3.7 0 0 0 .8-1.8 29.9 29.9 0 0 0 .2-4.8 26.7 26.7 0 0 0-.2-4.6 4 4 0 0 0-3-2.9 34.6 34.6 0 0 0-4.4-.7l-30.3-3.5a37 37 0 0 1-8.5-2 14.5 14.5 0 0 1-5.1-3.1 14.1 14.1 0 0 1-2.4-3 13.7 13.7 0 0 1-1.4-4 46.5 46.5 0 0 1-.8-6q-.2-3.4-.2-8.3 0-10 1.8-15.6a20.5 20.5 0 0 1 4.8-8.5 13.3 13.3 0 0 1 5.3-3.1 28 28 0 0 1 8.5-1h38a40.5 40.5 0 0 1 10.5 1 13.9 13.9 0 0 1 6.2 3.2 14.5 14.5 0 0 1 2.4 3.3 17.9 17.9 0 0 1 1.6 4.9 61.9 61.9 0 0 1 1 7.2q.4 4.2.6 10.3H281q-.4-5-.7-6.4a7.1 7.1 0 0 0-.8-2.3 2.8 2.8 0 0 0-1.7-1 16.8 16.8 0 0 0-3.5-.3h-18.2a21.8 21.8 0 0 0-3.3.2 3 3 0 0 0-1.6.8 3.6 3.6 0 0 0-1 1.8 22 22 0 0 0-.3 4.2 25 25 0 0 0 .4 4.3 4 4 0 0 0 1 2.2 8.8 8.8 0 0 0 2 .8 26.5 26.5 0 0 0 4.1.8l31.5 3.5a35.7 35.7 0 0 1 8.4 1.9 14.3 14.3 0 0 1 4.9 3 14 14 0 0 1 3.5 7.5 80.8 80.8 0 0 1 1 14.1Z"/></svg>
